<svg width="55" height="55" viewBox="0 0 55 55" fill="none" xmlns="http://www.w3.org/2000/svg">
<path d="M27.5 55C20.4132 55 13.7279 54.0547 8.67561 52.3382C1.5052 49.9021 0 46.7817 0 44.5931C0 41.7379 2.55116 39.737 4.69122 38.5614C5.47143 38.1329 6.45079 38.4179 6.8793 39.1978C7.3078 39.9778 7.02292 40.9575 6.24293 41.3859C4.32352 42.4403 3.22266 43.6093 3.22266 44.5931C3.22266 45.7963 4.92744 47.6611 9.71233 49.2867C14.4394 50.8929 20.7566 51.7773 27.5 51.7773C34.2434 51.7773 40.5606 50.8929 45.2877 49.2867C50.0726 47.6612 51.7773 45.7963 51.7773 44.5931C51.7773 43.6093 50.6765 42.4403 48.7571 41.3858C47.9771 40.9574 47.6922 39.9777 48.1207 39.1977C48.549 38.4178 49.5286 38.1328 50.3088 38.5613C52.4488 39.7371 55 41.7379 55 44.5931C55 46.7817 53.4948 49.9021 46.3244 52.3382C41.2721 54.0547 34.5868 55 27.5 55Z" fill="#C9DFF7"/>
<path d="M50.3086 38.5614C49.5284 38.1329 48.5488 38.4179 48.1205 39.1978C47.692 39.9778 47.9769 40.9575 48.7569 41.3859C50.6763 42.4403 51.7771 43.6093 51.7771 44.5931C51.7771 45.7963 50.0724 47.6612 45.2875 49.2868C40.5604 50.893 34.2432 51.7774 27.4998 51.7774C27.4997 51.7774 27.4995 51.7774 27.4994 51.7774V55C27.4995 55 27.4997 55 27.4998 55C34.5866 55 41.2719 54.0547 46.3242 52.3382C53.4946 49.9021 54.9998 46.7817 54.9998 44.5931C54.9998 41.7379 52.4486 39.7371 50.3086 38.5614Z" fill="#AECEF2"/>
<path d="M27.5001 48.3923C22.9262 48.3923 18.6058 47.8834 15.3348 46.9593C11.333 45.8289 9.30396 44.1924 9.30396 42.0957C9.30396 39.999 11.333 38.3627 15.3348 37.2323C18.6058 36.3082 22.9262 35.7993 27.5001 35.7993C32.0741 35.7993 36.3945 36.3082 39.6655 37.2323C43.6672 38.3627 45.6963 39.9991 45.6963 42.0957C45.6963 44.1924 43.6672 45.8289 39.6655 46.9593C36.3945 47.8833 32.0741 48.3923 27.5001 48.3923ZM12.5539 42.0956C12.7751 42.4204 13.8509 43.2648 16.796 44.0148C19.7193 44.7595 23.5208 45.1695 27.5 45.1695C31.4793 45.1695 35.2809 44.7595 38.2042 44.0148C41.1493 43.2648 42.2251 42.4203 42.4463 42.0956C42.225 41.771 41.1492 40.9266 38.2041 40.1764C35.2808 39.4319 31.4794 39.0219 27.5 39.0219C23.5207 39.0219 19.7193 39.4319 16.796 40.1764C13.851 40.9267 12.7752 41.771 12.5539 42.0956ZM42.4831 42.1623H42.4843H42.4831Z" fill="#C9DFF7"/>
<path d="M39.6651 37.2302C36.3941 36.3061 32.0737 35.7972 27.4998 35.7972C27.4997 35.7972 27.4995 35.7972 27.4994 35.7972V39.0199C27.4995 39.0199 27.4997 39.0199 27.4998 39.0199C31.4792 39.0199 35.2806 39.4299 38.2039 40.1745C41.149 40.9246 42.2249 41.769 42.4461 42.0937C42.2248 42.4184 41.1491 43.2628 38.204 44.0129C35.2807 44.7575 31.4792 45.1675 27.4998 45.1675C27.4997 45.1675 27.4995 45.1675 27.4994 45.1675V48.3902C27.4995 48.3902 27.4997 48.3902 27.4998 48.3902C32.0737 48.3902 36.3941 47.8813 39.6651 46.9572C43.6669 45.8268 45.696 44.1903 45.696 42.0937C45.696 39.997 43.6669 38.3606 39.6651 37.2302Z" fill="#AECEF2"/>
<path d="M27.4998 0C19.2403 0 12.5209 6.71945 12.5209 14.9788C12.5209 20.1233 18.771 31.4291 24.0142 40.0075C24.7625 41.2318 26.0655 41.9626 27.4998 41.9626C28.9342 41.9626 30.2371 41.2317 30.9854 40.0075C36.2287 31.4291 42.4787 20.1233 42.4787 14.9788C42.4787 6.71945 35.7592 0 27.4998 0ZM27.4998 19.9709C24.18 19.9709 21.4791 17.2701 21.4791 13.9503C21.4791 10.6307 24.18 7.92988 27.4998 7.92988C30.8195 7.92988 33.5205 10.6307 33.5205 13.9503C33.5205 17.2702 30.8195 19.9709 27.4998 19.9709Z" fill="#FE5857"/>
<path d="M27.4998 0C27.4997 0 27.4995 0 27.4994 0V7.92988C27.4995 7.92988 27.4997 7.92988 27.4998 7.92988C30.8196 7.92988 33.5205 10.6307 33.5205 13.9503C33.5205 17.2701 30.8196 19.9709 27.4998 19.9709C27.4997 19.9709 27.4995 19.9709 27.4994 19.9709V41.9626C27.4995 41.9626 27.4997 41.9626 27.4998 41.9626C28.9342 41.9626 30.2371 41.2317 30.9854 40.0075C36.2287 31.4291 42.4787 20.1233 42.4787 14.9788C42.4787 6.71945 35.7593 0 27.4998 0Z" fill="#DB0253"/>
</svg>
