<svg width="20" height="20" viewBox="0 0 20 20" fill="none" xmlns="http://www.w3.org/2000/svg">
<path d="M10 17.2322C10.3236 17.2322 10.5859 16.9698 10.5859 16.6462V8.77869C10.5859 8.45509 10.3236 8.19275 10 8.19275C9.67641 8.19275 9.41406 8.45509 9.41406 8.77869V16.6462C9.41406 16.9698 9.67641 17.2322 10 17.2322Z" fill="#613D2B"/>
<path d="M6.77385 16.7012C6.80432 17.024 7.09084 17.26 7.41229 17.2295C7.73447 17.1991 7.97096 16.9132 7.94053 16.591L7.19764 8.72351C7.16721 8.40136 6.8819 8.1648 6.5592 8.19527C6.23701 8.2257 6.00053 8.51152 6.03096 8.83371L6.77385 16.7012Z" fill="#613D2B"/>
<path d="M12.5875 17.2295C12.9093 17.2599 13.1955 17.0237 13.226 16.7013L13.9688 8.83373C13.9993 8.51154 13.7628 8.22572 13.4406 8.19529C13.1179 8.16467 12.8326 8.40139 12.8022 8.72354L12.0593 16.5911C12.0288 16.9132 12.2654 17.1991 12.5875 17.2295Z" fill="#613D2B"/>
<path d="M2.25171 6.59668H2.60198L4.29917 19.4905C4.33753 19.7821 4.58604 20 4.88011 20H15.1198C15.4138 20 15.6623 19.7821 15.7007 19.4905L17.3979 6.59668H17.7481C18.0717 6.59668 18.3341 6.33434 18.3341 6.01074V3.44711C18.3341 3.12352 18.0717 2.86117 17.7481 2.86117H12.7342V2.63027C12.7342 1.17996 11.5542 0 10.1039 0H9.89593C8.44561 0 7.26565 1.17996 7.26565 2.63027V2.86117H2.25171C1.92812 2.86117 1.66577 3.12352 1.66577 3.44711V6.01074C1.66577 6.33434 1.92808 6.59668 2.25171 6.59668ZM14.6059 18.8281H5.39393L3.78397 6.59668H16.2159L14.6059 18.8281ZM8.43749 2.63027C8.43749 1.82613 9.09175 1.17188 9.89589 1.17188H10.1039C10.908 1.17188 11.5623 1.82613 11.5623 2.63027V2.86117H8.43749V2.63027ZM2.83765 4.03305H17.1622V5.4248C17.0369 5.4248 2.9939 5.4248 2.83765 5.4248V4.03305Z" fill="#613D2B"/>
</svg>
